<svg xmlns="http://www.w3.org/2000/svg" width="800" height="450" viewBox="0 0 800 450">
  <defs>
    <linearGradient id="bg" x1="0%" y1="0%" x2="100%" y2="100%">
      <stop offset="0%" stop-color="#232a6e"/>
      <stop offset="50%" stop-color="#1a1d52"/>
      <stop offset="100%" stop-color="#0f123f"/>
    </linearGradient>
    <pattern id="grid" width="40" height="40" patternUnits="userSpaceOnUse">
      <path d="M 40 0 L 0 0 0 40" fill="none" stroke="#ffffff" stroke-opacity="0.06"/>
    </pattern>
    <radialGradient id="glow" cx="50%" cy="45%" r="65%">
      <stop offset="0%" stop-color="#5cdefe" stop-opacity="0.28"/>
      <stop offset="100%" stop-color="#5cdefe" stop-opacity="0"/>
    </radialGradient>
  </defs>
  <rect width="800" height="450" fill="url(#bg)"/>
  <rect width="800" height="450" fill="url(#grid)"/>
  <rect width="800" height="450" fill="url(#glow)"/>
  <g transform="translate(322 128)" fill="none" stroke="#5cdefe" stroke-width="11" stroke-linecap="round">
    <rect x="55" y="55" width="110" height="110" rx="20"/>
    <rect x="88" y="88" width="44" height="44" rx="10" fill="#5cdefe" stroke="none"/>
    <line x1="82" y1="55" x2="82" y2="18"/>
    <line x1="138" y1="55" x2="138" y2="18"/>
    <line x1="82" y1="165" x2="82" y2="202"/>
    <line x1="138" y1="165" x2="138" y2="202"/>
    <line x1="55" y1="82" x2="18" y2="82"/>
    <line x1="55" y1="138" x2="18" y2="138"/>
    <line x1="165" y1="82" x2="202" y2="82"/>
    <line x1="165" y1="138" x2="202" y2="138"/>
    <circle cx="82" cy="14" r="9" fill="#5cdefe" stroke="none"/>
    <circle cx="138" cy="14" r="9" fill="#5cdefe" stroke="none"/>
    <circle cx="82" cy="206" r="9" fill="#5cdefe" stroke="none"/>
    <circle cx="138" cy="206" r="9" fill="#5cdefe" stroke="none"/>
    <circle cx="14" cy="82" r="9" fill="#5cdefe" stroke="none"/>
    <circle cx="14" cy="138" r="9" fill="#5cdefe" stroke="none"/>
    <circle cx="206" cy="82" r="9" fill="#5cdefe" stroke="none"/>
    <circle cx="206" cy="138" r="9" fill="#5cdefe" stroke="none"/>
  </g>
  <text x="48" y="72" font-family="'Segoe UI', Arial, sans-serif" font-size="22" font-weight="700" letter-spacing="6" fill="#ffffff" opacity="0.9">NEXUS ACADEMY</text>
  <text x="760" y="415" font-family="'Segoe UI', Arial, sans-serif" font-size="16" letter-spacing="3" fill="#ffffff" opacity="0.45" text-anchor="end">AI AUTOMATION</text>
</svg>
